<svg xmlns="http://www.w3.org/2000/svg" version="1.1" viewBox="-5.0 -10.0 110.0 135.0">
 <g>
  <path d="m6.168 71.555c0 1.1914 0.96875 2.1641 2.1641 2.1641 3.5586 0.003906-13.645-0.011719 38.582 0.035156v7.8789h-7.7109c-0.09375 0-0.16016 0.066407-0.19531 0.14844h-4.4766c-2.0234 0-3.6641 1.6406-3.6641 3.6641 0 2.0234 1.6406 3.6641 3.6641 3.6641h24.523c2.0234 0 3.6641-1.6406 3.6641-3.6641 0-2.0234-1.6406-3.6641-3.6641-3.6641h-4.7188c-0.035157-0.082031-0.10156-0.14844-0.19531-0.14844h-6.7773v-7.8789l36.137 0.16016c1.1992 0 2.1758-0.97656 2.1758-2.1797l0.003907-23.281c0-0.125-0.10156-0.24609-0.26563-0.21484v-23.047c0-1.1914-0.96875-2.1641-2.1641-2.1641h-74.918c-1.1875 0-2.1641 0.96484-2.1641 2.1641v46.363zm37.418 12.547h5.9688c0.30078 0 0.30078 0.45313 0 0.45313h-5.9688c-0.30078 0-0.30078-0.45313 0-0.45313zm14.902 3.625h-20.586c-0.30078 0-0.30078-0.45312 0-0.45312h20.586c0.30078-0.003907 0.30078 0.45312 0 0.45312zm-37.316-45.09c-2.1484 2.7109-7.1719 9.0508-7.3359 9.3008-0.085938 0.25781-0.51563 0.125-0.41016-0.19141 0.015625-0.050782 0.042969-0.13281 7.5703-9.6211 0.09375-0.11719 0.26953-0.11328 0.35938 0l3.8672 4.9688 2.5117-3.2422c0.089844-0.11719 0.26562-0.11719 0.35938 0l5.9883 7.6719c0.18359 0.23828-0.17188 0.51562-0.35938 0.28125l-5.8047-7.4414c-2.9023 3.7148-2.2695 2.9727-2.418 3.0859l3.293 4.2305c0.0625 0.082031 0.046875 0.18359-0.007813 0.26172h8.7617c0.30078 0 0.30078 0.45312 0 0.45312l-14.734 0.003907c-0.30078 0-0.30078-0.45313 0-0.45313h5.6055zm-8.625-2.4883c-0.25-0.16797 0-0.54688 0.25391-0.37891 0.26562 0.17578 1.0977 0.61719 1.3945 0.56641 0.20313-0.035157 0.43359-0.35938 0.67969-0.52344 0.46875-0.3125 1.1602-0.22656 1.6016 0.19531 0.20313 0.19141 0.36328 0.44141 0.54297 0.44922 0.22656-0.039062 0.32812-0.19531 0.51172-0.4375 0.31641-0.39062 0.69141-0.58203 1.0664-0.55078 0.61719 0.0625 1.0117 0.69531 1.2891 1.1875 0.14453 0.26172-0.25 0.48047-0.39844 0.22266-0.48047-0.86328-0.97266-1.3477-1.6016-0.57422-0.22656 0.28906-0.46875 0.625-0.87891 0.60547-0.40625-0.011718-0.64062-0.38281-0.84375-0.57422-0.28906-0.27734-0.74219-0.34375-1.0352-0.14844-0.41797 0.27734-0.56641 0.79297-1.3906 0.52734-0.42188-0.12891-0.82422-0.32031-1.1914-0.56641zm19.195 1.4805c0-0.89062 0.71875-1.6094 1.6055-1.6094 0.89062 0 1.6094 0.71875 1.6094 1.6094 0 0.88672-0.71875 1.6094-1.6094 1.6094-0.88672-0.003906-1.6055-0.72656-1.6055-1.6094zm5.75 15.641 0.015624-0.085937c1.1797-5.6953 9.5938-11.188 18.363-9.6484 0.56641 1.6719 0.91406 3.4141 1.0234 5.1758-0.66797-0.18359-1.3438-0.36328-2.0156-0.57031-0.65625-0.20312-1.4102 0.11328-1.9141 0.53906-3.6055 0.28906-7.207 1.4727-10.48 3.4727-0.25781 0.16016-0.015625 0.54688 0.23828 0.38672 5.6016-3.4258 11.527-3.8164 13.457-3.2852 2.3945 0.64453 3.0859 3.4688 0.046874 4.1797-2.1211 0.55469-4.5742 0.48047-6.3359 1.9922-0.81641 0.71484-1.3281 1.6875-1.957 2.5039-0.18359 0.23828 0.17969 0.51172 0.35938 0.27734 0.64062-0.82812 1.1289-1.7695 1.8945-2.4375 1.5625-1.3398 3.8242-1.3477 5.8789-1.8359-0.13281 0.16797 0.003906 0.38281 0.17969 0.36328 0.070312-0.003906 0.14453 0.011719 0.21484 0.015625-0.55469 2.4922-1.5859 4.875-3.0273 6.9805-4.5312 1.9844-7.6406 1.1758-7.9375 1.3555-1.3789 0.84766-2.9961 1.8086-4.7031 2.5-1.5 0.60547-4.5586 1.4414-5.9922 0.71875-1.2617-0.64063-2.6992-3.1406-3.2578-4.4844-0.65625-1.5781-0.72656-2.8711-0.20703-3.8438 0.79687-1.4961 4.4609-3.4219 6.0156-4.0977 0.078126-0.027344 0.12891-0.09375 0.14063-0.17188zm41.648-7.2539c-8.043 1.4453-17.191-0.26172-24.398-5.1602 0.36719 0.71094 0.68359 1.4453 0.96094 2.1914-0.65234-0.10547-1.3086-0.17578-1.9688-0.20703v-8.8281c0-0.63672 0.51953-1.1562 1.1562-1.1562h23.09c0.64062 0 1.1641 0.51953 1.1641 1.1562zm-24.875 2.5938c-0.027344-0.015625-0.042969-0.042969-0.066406-0.0625 0.28516-0.050781 0.45312-0.003906 0.71875 0.074219-0.22266-0.007813-0.4375-0.011719-0.65234-0.011719zm6.3281 10.211c-0.35938 0.089844-0.42578-0.30078-0.21094-0.41016 4.7266-2.3984 9.1367-5.4102 13.102-8.9453 0.21875-0.19531 0.52344 0.13672 0.30078 0.33594-3.9922 3.5664-8.4258 6.6016-13.191 9.0195zm6.082-9.2109c-4.4805 2.8086-4.2773 2.7188-4.3828 2.7188-0.22266 0-0.3125-0.30469-0.11719-0.41797l4.2539-2.6836c0.26562-0.15234 0.49609 0.22656 0.24609 0.38281zm-58.348-30.125h74.91c0.94141 0 1.707 0.76562 1.707 1.7109v7.1953h-78.324v-7.1953c0-0.94531 0.76562-1.7109 1.707-1.7109zm-1.707 48.07v-38.711h78.336v15.613c-1.7852 0.55469-3.5312 1.1055-5.3633 1.4727v-11.918c0-0.88672-0.72656-1.6094-1.6172-1.6094h-23.09c-0.88672 0-1.6094 0.72266-1.6094 1.6094v8.8164c-6.1836-0.14844-11.836 2.8711-14.637 6.7383v-15.848c0-0.51953-0.41797-0.9375-0.9375-0.9375l-25.316 0.003906c-0.80859 0-1.4648 0.65625-1.4648 1.4531v16.398c0 0.65625 0.52734 1.1914 1.1914 1.1914h25.297c-0.14062 0.38281-0.25391 0.76562-0.33203 1.1797l-0.011719 0.070313c-1.6562 0.72656-5.2734 2.6523-6.125 4.2539-0.58594 1.0977-0.51953 2.5195 0.19141 4.2305 0.63672 1.5312 2.1094 4.0234 3.4688 4.7148 1.5781 0.79688 4.7148-0.035156 6.3711-0.70312 1.7148-0.69531 3.3242-1.6484 4.707-2.4961 2.4531 0.19531 4.9414-0.19531 7.2344-1.0781-3.0586 4.0742-5.4648 4.9922-10.539 7.2617l-34.043 0.003906c-0.94141 0-1.7109-0.76562-1.7109-1.7109zm78.605 0.18359c0 0.95312-0.77344 1.7266-1.7188 1.7266-7.3359-0.03125-35.305-0.15625-40.07-0.17969 1.7891-0.81641 4.2383-1.1289 12.969-5.3398 0.4375-0.21094 0.86328-0.4375 1.2969-0.65234 0.007813 0.015625 0.011719 0.035156 0.019531 0.054687 0.11719 0.25 0.55859 0.12891 0.38672-0.25781 1.1875-0.59375 2.3633-1.207 3.5312-1.8398 0.019531 0.87109-0.26562 2.5-0.90625 2.9688-0.21094 0.15625-0.58203 0.25-0.84766 0.125-0.33203-0.15625-0.63281 0.51562 0.28125 0.51562 0.31641 0 0.625-0.11719 0.83594-0.27344 0.84375-0.62109 1.1406-2.5078 1.0781-3.5781 1.0312-0.56641 2.0547-1.1445 3.0703-1.7383l-0.10156 5.1328c-0.007812 0.30078 0.44922 0.3125 0.45312 0.007812l0.10547-5.4102c3.3711-1.9961 5.8438-3.5898 9.1992-6.0039l0.027344 1.5586c0.007812 0.30469 0.46094 0.29297 0.45312-0.007813l-0.035156-1.8828c0.9375-0.68359 1.8789-1.3672 2.7969-2.0781-0.15234 1.0781-0.042969 2.1875 0.34766 3.2227 0.25 0.66797 0.66797 1.1953 1.3828 1.1953 0.87109 0 0.58203-0.6875 0.24609-0.51172-0.34375 0.17578-0.875 0.035156-1.2031-0.84375-0.42188-1.1211-0.48438-2.332-0.21875-3.4922 0.625-0.48828 1.25-0.98047 1.8672-1.4844 1.1992 0.91016 1.8984 2.9258 1.168 4.6289-0.12109 0.27734 0.30078 0.45312 0.41797 0.17969 0.77734-1.8164 0.13672-3.9766-1.2305-5.1016 3.0078-2.457 3.0938-2.4805 3.6523-3.0625l0.74609-0.46094z"/>
  <path d="m81.945 62.082v6.5195c0 0.30078 0.45313 0.30078 0.45313 0v-6.5195c0.003906-0.30078-0.45313-0.30078-0.45313 0z"/>
  <path d="m75.332 62.266c-1.2305 1.8438-1.4258 4.1211-0.53125 6.0898 0.125 0.27344 0.53906 0.085937 0.41406-0.1875-0.82812-1.8242-0.64453-3.9375 0.49609-5.6484 0.77344-1.1602 1.7773-0.88281 2.2227 0.30078 0.59375 1.5859 0.65234 3.2734 0.15625 4.8828-0.11328 0.37109-0.28125 0.78516-0.65234 1.0312-0.36328 0.23828-0.94922 0.22656-1.1562-0.023437-0.19922-0.23047-0.53906 0.066406-0.34766 0.29297 0.39453 0.46484 1.25 0.44141 1.7539 0.10938 0.49219-0.32422 0.69922-0.82812 0.83594-1.2773 0.52344-1.7031 0.46484-3.4961-0.16797-5.1758-0.56641-1.5078-2.0352-1.8828-3.0234-0.39453z"/>
  <path d="m70.707 62.273 0.03125 6.1328c0.003907 0.30469 0.45703 0.30078 0.45312 0l-0.03125-6.1367c0-0.30078-0.45703-0.29688-0.45312 0.003907z"/>
  <path d="m57.387 29.859h18.586c0.30078 0 0.30078-0.45312 0-0.45312l-18.586-0.003906c-0.30078 0-0.30078 0.45703 0 0.45703z"/>
  <path d="m63.578 27.242h12.84c0.30078 0 0.30078-0.45313 0-0.45313h-12.84c-0.30078-0.003906-0.30078 0.45313 0 0.45313z"/>
  <path d="m13.211 30.281c1.0586 0 1.918-1.1367 1.918-2.5391 0-1.4023-0.85938-2.5391-1.918-2.5391-1.0586 0-1.9141 1.1367-1.9141 2.5391 0 1.4023 0.85547 2.5391 1.9141 2.5391z"/>
  <path d="m20.715 30.281c1.0586 0 1.918-1.1367 1.918-2.5391 0-1.4023-0.85937-2.5391-1.918-2.5391s-1.9141 1.1367-1.9141 2.5391c0 1.4023 0.85938 2.5391 1.9141 2.5391z"/>
  <path d="m28.223 30.281c1.0586 0 1.918-1.1367 1.918-2.5391 0-1.4023-0.85938-2.5391-1.918-2.5391s-1.9141 1.1367-1.9141 2.5391c0 1.4023 0.85547 2.5391 1.9141 2.5391z"/>
  <path d="m70.414 44.707-6.0859-3.1133c-0.16797-0.082031-0.36328 0.035156-0.36328 0.22266l-0.046875 6.1172c0 0.18359 0.19531 0.30859 0.35938 0.22656l6.1328-3.0078c0.18359-0.089844 0.1875-0.35156 0.003906-0.44531z"/>
  <path d="m53.496 56.41c0.097656 0.28516 0.52734 0.13672 0.42969-0.14844l-0.55078-1.6016c1.6602-1.5078 4.0273 0.87109 2.25 1.7148-0.34766 0.16406-0.75 0.20703-1.1445 0.24609-0.28125 0.03125-0.26172 0.45312 0.023437 0.45312 0.44141-0.046875 0.89062-0.089844 1.3125-0.28906 0.85547-0.40625 1.1875-1.2773 0.59375-2.1289-0.83203-1.1953-2.5664-1.2031-3.4688-0.21094-0.16016 0.18359 0.015625 0.27344 0.55469 1.9648z"/>
  <path d="m28.906 59.723h-16.277c-0.30078 0-0.30078 0.45312 0 0.45312h16.277c0.30078 0.003907 0.30078-0.45312 0-0.45312z"/>
  <path d="m18.855 63.668h-5.918c-0.30078 0-0.30078 0.45312 0 0.45312h5.918c0.30078 0 0.30078-0.45312 0-0.45312z"/>
  <path d="m25.395 67.551h-11.965c-0.30078 0-0.30078 0.45312 0 0.45312h11.965c0.30078 0 0.30078-0.45312 0-0.45312z"/>
  <path d="m83.129 79.418c-2.4648-0.87891-4.8945 0.49219-6.6523 2.5117-0.42187 0.48437-0.875 1.0781-1.0312 1.8008-0.17187 0.80078 0.125 1.6211 0.71875 1.9961 0.25 0.16016 0.49609-0.22266 0.24219-0.38281-0.50781-0.32031-0.625-1.0117-0.51562-1.5156 0.13281-0.61719 0.54297-1.1523 0.92969-1.5977 1.5664-1.7969 3.6953-3.1094 5.9609-2.4375-0.68359 0.78906-1.1562 1.7617-1.3203 2.8047-0.39063 2.5078 1.625 3.4688 3.1016 2.2266 1.4141-1.1875 1.3672-4.043-0.97656-5.207 2.2383-2.0156 5.5195-1.582 7.2891 0.39453 0.19922 0.22266 0.53906-0.078125 0.33984-0.30469-1.4219-1.5859-3.75-2.2461-5.793-1.6406-0.86719 0.25781-1.6523 0.73047-2.293 1.3516zm1.1367 5.0547c-1.1523 0.97266-2.6836 0.27344-2.3594-1.8086 0.16016-1.0156 0.63672-1.9609 1.3281-2.707 2.1836 0.96094 2.2344 3.5078 1.0312 4.5156z"/>
  <path d="m7.5391 19.527h20.938c0.30078 0 0.30078-0.45312 0-0.45312l-20.938-0.003907c-0.30078 0-0.30078 0.45703 0 0.45703z"/>
  <path d="m7.668 15.586h6.8594c0.30078 0 0.30078-0.45313 0-0.45313h-6.8594c-0.30078-0.003906-0.30078 0.45313 0 0.45313z"/>
  <path d="m81.434 14.543c0.23047-0.1875-0.054688-0.54297-0.28906-0.35156-0.1875 0.15234-0.44141 0.19922-0.71875 0.14062-1.4023-0.31641-1.2148-2.7773 1.5117-2.9766 3.1484-0.23438 5.2969 2.7305 3.1094 7.0703-0.13281 0.26953 0.27344 0.47266 0.40625 0.20312 2.3672-4.7031-0.078125-7.9805-3.5508-7.7305-2.3242 0.17187-3.1836 1.8906-2.6289 3.0586 0.37109 0.78906 1.4844 1.1367 2.1602 0.58594z"/>
  <path d="m87.562 20.238 2.0586-2.3555c0.19922-0.22656-0.14453-0.52344-0.34375-0.30078l-2.0586 2.3555c-0.19922 0.22656 0.14453 0.52734 0.34375 0.30078z"/>
  <path d="m87.926 23.328c-0.16406 0.25391 0.21875 0.5 0.38281 0.24609 0.56641-0.875 1.5-1.4609 2.4375-1.5352 1.0078-0.070312 2.0117 0.45703 2.4297 1.3008 0.43359 0.87891 0.14453 2.0391-0.63281 2.5391-0.78516 0.50391-2.0078 0.19141-2.3789-0.64844-0.125-0.27734-0.53516-0.09375-0.41797 0.18359 0.32422 0.73828 1.1211 1.1641 1.9258 1.1641 1.7461 0 2.6328-1.9688 1.9102-3.4375-1.0234-2.0664-4.1445-2.1562-5.6562 0.1875z"/>
 </g>
<text x="0.0" y="117.5" font-size="5.0" font-weight="bold" font-family="Arbeit Regular, Helvetica, Arial-Unicode, Arial, Sans-serif" fill="#000000">Created by Vectors Market</text><text x="0.0" y="122.5" font-size="5.0" font-weight="bold" font-family="Arbeit Regular, Helvetica, Arial-Unicode, Arial, Sans-serif" fill="#000000">from Noun Project</text></svg>